<svg xmlns="http://www.w3.org/2000/svg" xmlns:xlink="http://www.w3.org/1999/xlink" viewBox="46 537 1738 290"><defs><style>.a{fill:#1a7f35;}.b,.c,.e{fill:#fff;}.b{font-size:22px;font-family:Roboto-Black, Roboto;font-weight:800;letter-spacing:0.05em;}.c{font-size:18px;font-family:OpenSans-Semibold, Open Sans;font-weight:600;}.d,.l{fill:none;}.d{stroke:#fff;stroke-width:2px;}.e{font-size:28px;font-family:Roboto-Light, Roboto;font-weight:300;}.f{fill:#23a947;}.g{fill:#24b24b;}.h{fill:#27be4f;}.i{fill:#2bd458;}.j{fill:#41d869;}.k{stroke:none;}.m{filter:url(#k);}.n{filter:url(#i);}.o{filter:url(#g);}.p{filter:url(#e);}.q{filter:url(#c);}.r{filter:url(#a);}</style><filter id="a" x="46" y="537" width="288" height="290" filterUnits="userSpaceOnUse"><feOffset dy="3" input="SourceAlpha"/><feGaussianBlur stdDeviation="3" result="b"/><feFlood flood-opacity="0.161"/><feComposite operator="in" in2="b"/><feComposite in="SourceGraphic"/></filter><filter id="c" x="336" y="537" width="288" height="290" filterUnits="userSpaceOnUse"><feOffset dy="3" input="SourceAlpha"/><feGaussianBlur stdDeviation="3" result="d"/><feFlood flood-opacity="0.161"/><feComposite operator="in" in2="d"/><feComposite in="SourceGraphic"/></filter><filter id="e" x="626" y="537" width="288" height="290" filterUnits="userSpaceOnUse"><feOffset dy="3" input="SourceAlpha"/><feGaussianBlur stdDeviation="3" result="f"/><feFlood flood-opacity="0.161"/><feComposite operator="in" in2="f"/><feComposite in="SourceGraphic"/></filter><filter id="g" x="916" y="537" width="288" height="290" filterUnits="userSpaceOnUse"><feOffset dy="3" input="SourceAlpha"/><feGaussianBlur stdDeviation="3" result="h"/><feFlood flood-opacity="0.161"/><feComposite operator="in" in2="h"/><feComposite in="SourceGraphic"/></filter><filter id="i" x="1206" y="537" width="288" height="290" filterUnits="userSpaceOnUse"><feOffset dy="3" input="SourceAlpha"/><feGaussianBlur stdDeviation="3" result="j"/><feFlood flood-opacity="0.161"/><feComposite operator="in" in2="j"/><feComposite in="SourceGraphic"/></filter><filter id="k" x="1496" y="537" width="288" height="290" filterUnits="userSpaceOnUse"><feOffset dy="3" input="SourceAlpha"/><feGaussianBlur stdDeviation="3" result="l"/><feFlood flood-opacity="0.161"/><feComposite operator="in" in2="l"/><feComposite in="SourceGraphic"/></filter></defs><g class="r" transform="matrix(1, 0, 0, 1, 0, 0)"><path class="a" d="M10,0H260a10,10,0,0,1,10,10V262a10,10,0,0,1-10,10H10A10,10,0,0,1,0,262V10A10,10,0,0,1,10,0Z" transform="translate(55 543)"/></g><text class="b" transform="translate(83 698)"><tspan x="0" y="0">ANÁLISE</tspan></text><text class="c" transform="translate(83 712)"><tspan x="0" y="19">Analisar os objetivos </tspan><tspan x="0" y="44">definidos pela empresa </tspan></text><g class="d" transform="translate(235.209 571.7)"><circle class="k" cx="29.046" cy="29.046" r="29.046"/><circle class="l" cx="29.046" cy="29.046" r="28.046"/></g><text class="e" transform="translate(256.748 610.87)"><tspan x="0" y="0">1</tspan></text><g class="q" transform="matrix(1, 0, 0, 1, 0, 0)"><path class="f" d="M10,0H260a10,10,0,0,1,10,10V262a10,10,0,0,1-10,10H10A10,10,0,0,1,0,262V10A10,10,0,0,1,10,0Z" transform="translate(345 543)"/></g><text class="b" transform="translate(373 698)"><tspan x="0" y="0">PESQUISA</tspan></text><text class="c" transform="translate(373 712)"><tspan x="0" y="19">• Personas</tspan><tspan x="0" y="44">• Jornadas de usuário</tspan></text><g class="d" transform="translate(525.209 571.7)"><circle class="k" cx="29.046" cy="29.046" r="29.046"/><circle class="l" cx="29.046" cy="29.046" r="28.046"/></g><text class="e" transform="translate(546.748 610.87)"><tspan x="0" y="0">2</tspan></text><g class="p" transform="matrix(1, 0, 0, 1, 0, 0)"><path class="g" d="M10,0H260a10,10,0,0,1,10,10V262a10,10,0,0,1-10,10H10A10,10,0,0,1,0,262V10A10,10,0,0,1,10,0Z" transform="translate(635 543)"/></g><text class="b" transform="translate(663 698)"><tspan x="0" y="0">ARQUITETURA</tspan><tspan x="0" y="25">DA INFORMAÇÃO</tspan></text><text class="c" transform="translate(663 712)"><tspan x="0" y="19"></tspan><tspan x="0" y="44">• Mapa do site</tspan></text><g class="d" transform="translate(815.209 571.7)"><circle class="k" cx="29.046" cy="29.046" r="29.046"/><circle class="l" cx="29.046" cy="29.046" r="28.046"/></g><text class="e" transform="translate(836.748 610.87)"><tspan x="0" y="0">3</tspan></text><g class="o" transform="matrix(1, 0, 0, 1, 0, 0)"><path class="h" d="M10,0H260a10,10,0,0,1,10,10V262a10,10,0,0,1-10,10H10A10,10,0,0,1,0,262V10A10,10,0,0,1,10,0Z" transform="translate(925 543)"/></g><text class="b" transform="translate(953 698)"><tspan x="0" y="0">IDEAÇÃO</tspan></text><text class="c" transform="translate(953 712)"><tspan x="0" y="19">• UX</tspan><tspan x="0" y="44">• Sketches</tspan></text><g class="d" transform="translate(1105.209 571.7)"><circle class="k" cx="29.046" cy="29.046" r="29.046"/><circle class="l" cx="29.046" cy="29.046" r="28.046"/></g><text class="e" transform="translate(1126.748 610.87)"><tspan x="0" y="0">4</tspan></text><g class="n" transform="matrix(1, 0, 0, 1, 0, 0)"><path class="i" d="M10,0H260a10,10,0,0,1,10,10V262a10,10,0,0,1-10,10H10A10,10,0,0,1,0,262V10A10,10,0,0,1,10,0Z" transform="translate(1215 543)"/></g><text class="b" transform="translate(1243 698)"><tspan x="0" y="0">PROTÓTIPO</tspan></text><text class="c" transform="translate(1243 712)"><tspan x="0" y="19">• UI Design</tspan><tspan x="0" y="44">• Testes de usabilidade</tspan></text><g class="d" transform="translate(1395.209 571.7)"><circle class="k" cx="29.046" cy="29.046" r="29.046"/><circle class="l" cx="29.046" cy="29.046" r="28.046"/></g><text class="e" transform="translate(1416.748 610.87)"><tspan x="0" y="0">5</tspan></text><g class="m" transform="matrix(1, 0, 0, 1, 0, 0)"><path class="j" d="M10,0H260a10,10,0,0,1,10,10V262a10,10,0,0,1-10,10H10A10,10,0,0,1,0,262V10A10,10,0,0,1,10,0Z" transform="translate(1505 543)"/></g><text class="b" transform="translate(1533 698)"><tspan x="0" y="0">FRONT_END</tspan></text><text class="c" transform="translate(1533 712)"><tspan x="0" y="19">• HTML5</tspan><tspan x="0" y="44">• CSS3</tspan><tspan x="0" y="69">• JavaScript</tspan></text><g class="d" transform="translate(1685.209 571.7)"><circle class="k" cx="29.046" cy="29.046" r="29.046"/><circle class="l" cx="29.046" cy="29.046" r="28.046"/></g><text class="e" transform="translate(1706.748 610.87)"><tspan x="0" y="0">6</tspan></text></svg>