<svg xmlns="http://www.w3.org/2000/svg" xmlns:xlink="http://www.w3.org/1999/xlink" viewBox="47 1037 1439 290"><defs><style>.a{fill:#ff9d00;}.b,.c,.e{fill:#fff;}.b{font-size:22px;font-family:Roboto-Black, Roboto;font-weight:800;letter-spacing:0.05em;}.c{font-size:18px;font-family:OpenSans-Semibold, Open Sans;font-weight:600;}.d,.i{fill:none;}.d{stroke:#fff;stroke-width:2px;}.e{font-size:28px;font-family:Roboto-Light, Roboto;font-weight:300;}.f{fill:#ffa71a;}.g{fill:#ffb133;}.h{fill:#ffbb4d;}.j{stroke:none;}.k{filter:url(#g);}.l{filter:url(#e);}.m{filter:url(#c);}.n{filter:url(#a);}</style><filter id="a" x="47" y="1037" width="288" height="290" filterUnits="userSpaceOnUse"><feOffset dy="3" input="SourceAlpha"/><feGaussianBlur stdDeviation="3" result="b"/><feFlood flood-opacity="0.161"/><feComposite operator="in" in2="b"/><feComposite in="SourceGraphic"/></filter><filter id="c" x="337" y="1037" width="288" height="290" filterUnits="userSpaceOnUse"><feOffset dy="3" input="SourceAlpha"/><feGaussianBlur stdDeviation="3" result="d"/><feFlood flood-opacity="0.161"/><feComposite operator="in" in2="d"/><feComposite in="SourceGraphic"/></filter><filter id="e" x="627" y="1037" width="288" height="290" filterUnits="userSpaceOnUse"><feOffset dy="3" input="SourceAlpha"/><feGaussianBlur stdDeviation="3" result="f"/><feFlood flood-opacity="0.161"/><feComposite operator="in" in2="f"/><feComposite in="SourceGraphic"/></filter><filter id="g" x="917" y="1037" width="288" height="290" filterUnits="userSpaceOnUse"><feOffset dy="3" input="SourceAlpha"/><feGaussianBlur stdDeviation="3" result="h"/><feFlood flood-opacity="0.161"/><feComposite operator="in" in2="h"/><feComposite in="SourceGraphic"/></filter></defs><g transform="translate(1 500)"><g class="n" transform="matrix(1, 0, 0, 1, -1, -500)"><path class="a" d="M10,0H260a10,10,0,0,1,10,10V262a10,10,0,0,1-10,10H10A10,10,0,0,1,0,262V10A10,10,0,0,1,10,0Z" transform="translate(56 1043)"/></g><text class="b" transform="translate(83 698)"><tspan x="0" y="0">ANÁLISE</tspan></text><text class="c" transform="translate(83 731)"><tspan x="0" y="0">Analisar os objetivos </tspan><tspan x="0" y="25">definidos pela empresa</tspan></text><g class="d" transform="translate(235.209 571.7)"><circle class="j" cx="29.046" cy="29.046" r="29.046"/><circle class="i" cx="29.046" cy="29.046" r="28.046"/></g><text class="e" transform="translate(256.748 610.87)"><tspan x="0" y="0">1</tspan></text><g class="m" transform="matrix(1, 0, 0, 1, -1, -500)"><path class="f" d="M10,0H260a10,10,0,0,1,10,10V262a10,10,0,0,1-10,10H10A10,10,0,0,1,0,262V10A10,10,0,0,1,10,0Z" transform="translate(346 1043)"/></g><text class="b" transform="translate(373 698)"><tspan x="0" y="0">PESQUISA</tspan></text><text class="c" transform="translate(373 731)"><tspan x="0" y="0">• Concorrentes</tspan><tspan x="0" y="25">• Benchmarking</tspan></text><g class="d" transform="translate(525.209 571.7)"><circle class="j" cx="29.046" cy="29.046" r="29.046"/><circle class="i" cx="29.046" cy="29.046" r="28.046"/></g><text class="e" transform="translate(546.748 610.87)"><tspan x="0" y="0">2</tspan></text><g class="l" transform="matrix(1, 0, 0, 1, -1, -500)"><path class="g" d="M10,0H260a10,10,0,0,1,10,10V262a10,10,0,0,1-10,10H10A10,10,0,0,1,0,262V10A10,10,0,0,1,10,0Z" transform="translate(636 1043)"/></g><text class="b" transform="translate(663 698)"><tspan x="0" y="0">IDEAÇÃO</tspan></text><text class="c" transform="translate(663 732)"><tspan x="0" y="0">• UX</tspan><tspan x="0" y="24">• Sketches</tspan></text><g class="d" transform="translate(815.209 571.7)"><circle class="j" cx="29.046" cy="29.046" r="29.046"/><circle class="i" cx="29.046" cy="29.046" r="28.046"/></g><text class="e" transform="translate(836.748 610.87)"><tspan x="0" y="0">3</tspan></text><g class="k" transform="matrix(1, 0, 0, 1, -1, -500)"><path class="h" d="M10,0H260a10,10,0,0,1,10,10V262a10,10,0,0,1-10,10H10A10,10,0,0,1,0,262V10A10,10,0,0,1,10,0Z" transform="translate(926 1043)"/></g><path class="i" d="M10,0H260a10,10,0,0,1,10,10V262a10,10,0,0,1-10,10H10A10,10,0,0,1,0,262V10A10,10,0,0,1,10,0Z" transform="translate(1215 543)"/><text class="b" transform="translate(953 698)"><tspan x="0" y="0">PROTÓTIPO</tspan></text><text class="c" transform="translate(953 731)"><tspan x="0" y="0">• UI Design</tspan><tspan x="0" y="25">• Testes de usabilidade</tspan></text><g class="d" transform="translate(1105.209 571.7)"><circle class="j" cx="29.046" cy="29.046" r="29.046"/><circle class="i" cx="29.046" cy="29.046" r="28.046"/></g><text class="e" transform="translate(1126.748 610.87)"><tspan x="0" y="0">4</tspan></text></g></svg>